<svg xmlns="http://www.w3.org/2000/svg" viewBox="0 0 251.7 270.34"><defs><style>.cls-3{fill:#9fa0a0;}</style></defs><g id="圖層_2" data-name="圖層 2"><g id="圖層_1-2" data-name="圖層 1"><g id="_4y2mKJ" data-name="4y2mKJ"><path class="cls-3" d="M69.94,29.5H177c0-6.47-.08-12.66,0-18.86.11-6.44,3.81-10.5,9.45-10.6s9.56,3.39,9.76,9.09c.16,4.55,0,9.12,0,13.68,0,7,0,7,6.77,7,9.27,0,18.55,0,27.82,0,13.12,0,20.79,7.57,20.79,20.57,0,29.18,0,161.69,0,198.76,0,14-7.32,21.23-21.4,21.23H21c-13.46,0-21-7.43-21-20.75q0-99,0-197.9C0,37,7.16,29.83,21.76,29.82c7.9,0,15.81-.17,23.71.07,4,.12,5.83-.81,5.47-5.27-.41-5-.16-10-.07-15C51,3.8,54.69.05,60.21,0A9.26,9.26,0,0,1,69.9,9.34C70.07,16,69.94,22.6,69.94,29.5Zm-55.32,72c0,2.13,0,3.78,0,5.43.06,15.79.19,31.58.18,47.37,0,29.16-.12,58.32-.14,87.49,0,9.63,5.3,14.88,15,14.89q97.31,0,194.62,0c8.58,0,12.8-4.27,12.8-12.91q0-68.79,0-137.57c0-1.48-.13-3-.22-4.67ZM50.78,42.68c-6,5-7.44,11.23-4.62,17.61a15.38,15.38,0,0,0,16.55,9.24c6.36-.87,12.15-6.65,12.92-12.92.75-6.1-1.33-11.12-5.64-13,0,3.45.11,6.78,0,10.1C69.72,60,65.76,64.11,60.23,64s-9.32-4.19-9.44-10.55C50.73,50.06,50.78,46.65,50.78,42.68ZM177.05,43a14.09,14.09,0,0,0-4.63,17c2.79,6.68,9,10.28,16.48,9.53,6.4-.64,12.06-6,13.23-12.64,1-5.85-1.21-11.33-5.79-13.49,0,3.3,0,6.46,0,9.61-.05,6.63-3.84,11-9.45,11-5.82,0-9.65-4.21-9.82-10.81C177,49.92,177.05,46.65,177.05,43Z"/><path class="cls-3" d="M208.27,133c0,3,0,6.06,0,9.09,0,3.69-2,5.69-5.59,5.75-6.06.11-12.12,0-18.18-.05-4-.06-6-2-5.85-6.27.23-5.6,0-11.21.08-16.82.06-4.62,1.72-6.4,6.25-6.48,5.76-.11,11.52,0,17.27,0,4.1,0,6.16,1.92,6,6.15-.11,2.87,0,5.76,0,8.64Z"/><path class="cls-3" d="M163.3,225.23c0,2.89,0,5.77,0,8.66-.07,3.68-2.07,5.69-5.66,5.75-6.07.12-12.15.07-18.23,0-3.86-.07-5.75-2-5.66-6,.13-5.77.07-11.54,0-17.32q-.07-6.22,6.05-6.26c5.77-.05,11.54,0,17.32,0,4.1,0,6.16,2.1,6.2,6.17C163.33,219.15,163.3,222.19,163.3,225.23Z"/><path class="cls-3" d="M117.93,133.12c0,3,0,6.07,0,9.11,0,3.51-1.75,5.52-5.17,5.61-6.37.16-12.76.16-19.13,0-3.56-.08-5.12-2.74-5.23-5.78-.24-6.06-.07-12.14.06-18.21.08-3.64,2.08-5.58,5.76-5.59q9.1,0,18.22.06c3.73,0,5.56,1.93,5.52,5.68,0,3,0,6.07,0,9.11Z"/><path class="cls-3" d="M43.47,224.55c0-2.89,0-5.77,0-8.66,0-3.71,1.84-5.8,5.45-5.89,6.22-.15,12.46-.1,18.68,0,3.44.07,5.34,2.08,5.39,5.5.09,6.23.11,12.46,0,18.69-.07,3.41-2.07,5.35-5.51,5.39-6.23.07-12.46,0-18.69-.07-3.47-.05-5.32-1.85-5.3-5.41C43.48,230.93,43.47,227.74,43.47,224.55Z"/><path class="cls-3" d="M43.51,132.9c0-3,0-6.07,0-9.11-.06-3.32,1.57-5.31,4.81-5.39,6.52-.18,13.06-.18,19.58,0,3.24.07,5,2.23,5,5.35.14,6.07.2,12.15,0,18.22-.14,4.34-2.37,6.19-6.76,6.15-5.46,0-10.92-.08-16.38-.2-4.68-.1-6.31-1.76-6.36-6.33,0-2.89,0-5.77,0-8.66Z"/><path class="cls-3" d="M117.93,225.05c0,2.89-.1,5.78,0,8.66.17,3.8-1.68,5.81-5.32,5.89-6.23.14-12.46.15-18.69,0-3.6-.09-5.53-2.14-5.52-5.85,0-5.93,0-11.85,0-17.78,0-3.86,2.07-5.93,5.91-6q8.89-.12,17.78,0c3.82.05,5.91,2,5.85,5.94,0,3,0,6.08,0,9.12Z"/><path class="cls-3" d="M103.05,192.74c-2.88,0-5.76,0-8.64,0-4,.06-5.85-2.14-6-5.87-.16-5.6-.23-11.2-.13-16.8.09-5,2.08-6.81,7-6.82,5.59,0,11.18-.06,16.77.11,4.9.15,6.24,2.08,6,6.91s-.15,9.88,0,14.82c.13,6-1.3,7.61-7.25,7.66-2.58,0-5.15,0-7.73,0Z"/><path class="cls-3" d="M163.32,178.14c0,3,.09,6.06,0,9.09-.13,3.57-1.91,5.67-5.66,5.68-6.07,0-12.14.07-18.21,0-3.33,0-5.56-1.45-5.65-5.11-.15-6.06-.26-12.12-.39-18.17-.08-4.13,2.13-6.21,6.09-6.29,5.75-.12,11.52-.16,17.26.06,5.35.21,6.67,1.76,6.73,7,0,2.58,0,5.16,0,7.74Z"/><path class="cls-3" d="M193.33,192.87c-3,0-6.07,0-9.11,0-3.51,0-5.37-2-5.46-5.37-.18-6.22-.21-12.44-.19-18.66,0-3.46,1.87-5.32,5.39-5.35,6.36,0,12.73-.17,19.09-.07,3.18.05,5.09,1.82,5.13,5.14.06,6.33.07,12.67.08,19,0,3.56-1.93,5.29-5.36,5.38-3.19.09-6.38,0-9.56,0A.17.17,0,0,1,193.33,192.87Z"/><path class="cls-3" d="M73,178.25c0,3,.07,6.05,0,9.07-.11,3.64-2,5.54-5.74,5.55-6.06,0-12.12,0-18.19,0-3.71,0-5.57-1.86-5.56-5.62,0-6,0-12,0-18.06,0-3.72,1.68-5.67,5.43-5.74,6.19-.11,12.38-.33,18.57-.26,3.7,0,5.34,2.51,5.48,6,.12,3,0,6,0,9.08Z"/><path class="cls-3" d="M133.76,133c0-3,0-6.07,0-9.11,0-3.5,1.63-5.44,5.2-5.47q9.33-.09,18.67-.07c3.72,0,5.59,2.09,5.64,5.7.08,6.07.1,12.15,0,18.22-.06,3.66-2.15,5.57-5.77,5.61-6.07.07-12.15.13-18.22,0-3.54-.09-5.63-1.93-5.56-5.74C133.79,139.07,133.75,136,133.76,133Z"/></g></g></g></svg>