<svg xmlns="http://www.w3.org/2000/svg" viewBox="0 0 125.32 163.12"><defs><style>.cls-1{fill:#e83f15;}.cls-2{fill:#e11715;}</style></defs><g id="圖層_2" data-name="圖層 2"><g id="圖層_1-2" data-name="圖層 1"><g id="_0NEWDG" data-name="0NEWDG"><path class="cls-1" d="M56.05.59c17.41-2.35,33,2.38,46.6,13,22.38,17.51,28.47,43.75,17,72.19-10.31,25.57-27.25,46.61-46,66.39-3.54,3.74-7.26,7.3-10.93,10.91-.06.07-.47-.22-.71-.34q0-33,0-66c23-.36,38.59-18.46,38.9-37.88.34-21.67-15.73-37.89-38.9-39.37,0-4.16-.35-8.36.1-12.47C62.77,2.08,61.08-.08,56.05.59Z"/><path class="cls-2" d="M56.05.59c5-.67,6.72,1.49,6.17,6.47-.45,4.11-.1,8.31-.1,12.47-.66,0-1.33.13-2,.16C37.94,20.76,21.05,40.92,24,62.86c2.56,19.42,17.3,32.52,38.17,33.92q0,33,0,66C36.71,138.44,13.94,112.2,3,78-7.95,44,12.35,9.45,47.2,1.7,50.1,1.05,53,.22,56.05.59Z"/></g></g></g></svg>