<svg xmlns="http://www.w3.org/2000/svg" viewBox="0 0 149.1 176.93"><defs><style>.cls-5{fill:#9f9896;}.cls-6{fill:#4cbfef;}</style></defs><g id="圖層_2" data-name="圖層 2"><g id="圖層_1-2" data-name="圖層 1"><g id="ApfSRB"><path class="cls-5" d="M79.36,156.19c0,9.61,0-4.91,0,4.7,0,8.52-6.3,15.11-15,16-7.54.75-15.18-5.08-16.77-12.86a13.8,13.8,0,0,1-.23-3.33c.08-1.72,1.09-2.59,2.78-2.94s3.87-.42,5.32,1.56c.53.72.76,2.9,1,3.77,1.24,5.16,2.69,6.43,8.22,5.9,3.18-1,4.87-2.89,5.06-7.86.09-2.53,0-5.07,0-7.6,0-16.92,0-9.7,0-26.62a4.26,4.26,0,0,0-2.51-4.23c-9.5-5.38-17.84-4.27-26,3-1.18,1-1.86.94-3,0-11.35-10-29-7.4-36.74,3.47-.27.38-.47,1.11-1.13.83s-.35-.9-.31-1.4C2.08,96.22,26.78,68,59,61.07a74.94,74.94,0,0,1,86.78,49.47,78.37,78.37,0,0,1,3.12,13.26c.1.69.58,1.61-.24,2s-1.14-.52-1.64-.91a25.82,25.82,0,0,0-30.85-1c-1.21.84-2.11,2.7-3.52,2.46s-2.36-1.67-3.57-2.54A26,26,0,0,0,81.13,123a3.39,3.39,0,0,0-1.8,3.26C79.39,136.21,79.36,146.2,79.36,156.19Z"/><path class="cls-6" d="M44.86,17.74c0-4.06,0-8.12,0-12.18C44.93,2.1,46.66,0,49.21,0s4.19,2.09,4.22,5.35c.07,8.22,0,16.44,0,24.66a7,7,0,0,1-.06.91c-.33,2.73-2.2,4.7-4.46,4.48-2.67-.27-3.92-2.11-4-4.58-.13-4.35,0-8.72,0-13.08Z"/><path class="cls-6" d="M122.81,46c0-4.06,0-8.12,0-12.17.05-3.36,1.62-5.26,4.19-5.29s4.22,1.72,4.27,4.93q.21,12.78,0,25.56c0,3.1-2,5-4.33,4.89s-4.06-2.09-4.12-5.14C122.76,54.55,122.82,50.28,122.81,46Z"/><path class="cls-6" d="M96.5,17.62c0-4.16,0-8.32,0-12.47,0-3.17,1.56-5.05,4-5.13s4.24,1.89,4.26,5.18q.08,12.47,0,24.94c0,3.34-1.64,5.31-4.16,5.29s-4.07-2-4.11-5.35C96.46,25.93,96.5,21.77,96.5,17.62Z"/><path class="cls-6" d="M71.5,31.29c0-4.26,0-8.51,0-12.76,0-3.14,1.66-5,4.15-4.93,2.31.05,4.07,2,4.09,4.76q.1,12.92,0,25.83c0,3-1.88,4.87-4.37,4.75s-3.83-1.89-3.86-4.89C71.46,39.8,71.5,35.54,71.5,31.29Z"/><path class="cls-6" d="M20.35,46.06c0-4.05,0-8.1,0-12.15,0-3.46,1.45-5.3,4-5.36s4.23,1.89,4.25,5.48q0,12.17,0,24.31c0,3.51-1.65,5.6-4.22,5.56s-4.05-2.06-4.07-5.68C20.33,54.17,20.35,50.12,20.35,46.06Z"/></g></g></g></svg>